<?xml version="1.0" encoding="utf-8"?>
<?xml-stylesheet type="text/xsl" href="rss1.xsl"?>
<rss version="2.0" xmlns:atom="http://www.w3.org/2005/Atom" xmlns:content="http://purl.org/rss/1.0/modules/content/" xmlns:dc="http://purl.org/dc/elements/1.1/" xmlns:media="http://search.yahoo.com/mrss/">
<channel>
 <title>Getty</title>
 <link>http://www.gettyimg.com/</link>
 <atom:link href="http://www.gettyimg.com/" rel="self" type="application/rss+xml" />

 
                <item>
                <title><![CDATA[【HD Live Performances】FEED - Metallica M72 World Tour AT&amp;T Stadium 18.08.2023 Sat FEED 1080i DD5.1-TSS]]></title>
                <link><![CDATA[https://sharemania.us/threads/metallica-m72-world-tour-at-t-stadium-18-08-2023-sat-feed-1080i-dd5-1-tss.226654/]]></link>
                <description><![CDATA[<article>
<blockquote class="messageText SelectQuoteContainer ugc baseHtml">
<div style="text-align: center"><img src="https://i.imgur.com/bTiMghV.png" class="bbCodeImage LbImage" alt="[​IMG]" data-url="https://i.imgur.com/bTiMghV.png" style=""> <br>
<br>
Setlist:<br>
Creeping Death<br>
Harvester of Sorrow<br>
Leper Messiah<br>
King Nothing<br>
Lux Æterna<br>
Too Far Gone?<br>
Welcome Home (Sanitarium) (Preceded by Kirk &amp; Rob doodle)<br>
Shadows Follow<br>
Orion<br>
Nothing Else Matters (Preceded by Kirk doodle)<br>
Sad but True<br>
The Day That Never Comes<br>
Hardwired<br>
Fuel (Preceded by James doodle)<br>
Seek &amp; Destroy<br>
Master of Puppets<br>
<br>
​</div>
<div class="ToggleTriggerAnchor bbCodeSpoilerContainer">
<button type="button" class="button bbCodeSpoilerButton ToggleTrigger Tooltip JsOnly" data-target="> .SpoilerTarget"><span>Spoiler: <span class="SpoilerTitle">Media Info</span></span></button>
<div class="SpoilerTarget bbCodeSpoilerText"><div style="text-align: left">General<br>
ID : 1 (0x1)<br>
Complete name : D:\Records\Metallica M72 World Tour AT&amp;T Stadium 18.08.2023 Sat FEED 1080i DD5.1-TSS.ts<br>
Format : MPEG-TS<br>
File size : 25.3 GiB<br>
Duration : 2 h 53 min<br>
Overall bit rate mode : Variable<br>
Overall bit rate : 20.8 Mb/s<br>
Video<br>
ID : 308 (0x134)<br>
Menu ID : 1 (0x1)<br>
Format : AVC<br>
Format/Info : Advanced Video Codec<br>
Format profile : High@L4.1<br>
Format settings : CABAC / 3 Ref Frames<br>
Format settings, CABAC : Yes<br>
Format settings, Reference frames : 3 frames<br>
Codec ID : 27<br>
Duration : 2 h 53 min<br>
Bit rate mode : Constant<br>
Bit rate : 19.7 Mb/s<br>
Width : 1 920 pixels<br>
Height : 1 080 pixels<br>
Display aspect ratio : 16:9<br>
Frame rate : 25.000 FPS<br>
Color space : YUV<br>
Chroma subsampling : 4:2:0<br>
Bit depth : 8 bits<br>
Scan type : Interlaced<br>
Scan type, store method : Separated fields<br>
Scan order : Top Field First<br>
Bits/(Pixel*Frame) : 0.380<br>
Stream size : 23.2 GiB (92%)<br>
Color range : Limited<br>
Color primaries : BT.709<br>
Transfer characteristics : BT.709<br>
Matrix coefficients : BT.709<br>
<br>
Audio<br>
ID : 256 (0x100)<br>
Menu ID : 1 (0x1)<br>
Format : AC-3<br>
Format/Info : Audio Coding 3<br>
Commercial name : Dolby Digital<br>
Codec ID : 6<br>
Duration : 2 h 53 min<br>
Bit rate mode : Constant<br>
Bit rate : 640 kb/s<br>
Channel(s) : 6 channels<br>
Channel layout : L R C LFE Ls Rs<br>
Sampling rate : 48.0 kHz<br>
Frame rate : 31.250 FPS (1536 SPF)<br>
Compression mode : Lossy<br>
Delay relative to video : -80 ms<br>
Stream size : 795 MiB (3%)<br>
Language : English<br>
Service kind : Complete Main<div style="text-align: center">​</div></div></div>
</div><div style="text-align: left"><div style="text-align: center"><br>
​</div></div><div style="text-align: center"><div style="text-align: center">Download:​</div>
<div class="bbCodeBlock bbCodeVfcHH HiddenContent">
<div class="attribution type">Hidden Content:</div>
<blockquote>You must reply before you can see the hidden data contained here.</blockquote>
</div><div style="text-align: center">​</div></div>
<div class="messageTextEndMarker">&nbsp;</div>
</blockquote>
</article>]]></description>
                <author><![CDATA[theslothsidd]]></author>
                </item>

                
                <item>
                <title><![CDATA[【Albums (lossy)】Dolby Atmos - Laura Pausini - Fatti sentire ancora (Deluxe) (Album Dolby ATMOS Tidal EAC3 M4A) (2018)]]></title>
                <link><![CDATA[https://sharemania.us/threads/laura-pausini-fatti-sentire-ancora-deluxe-album-dolby-atmos-tidal-eac3-m4a-2018.226655/]]></link>
                <description><![CDATA[<article>
<blockquote class="messageText SelectQuoteContainer ugc baseHtml">
thanks
<div class="messageTextEndMarker">&nbsp;</div>
</blockquote>
</article>]]></description>
                <author><![CDATA[brunodesalles_]]></author>
                </item>

                
                <item>
                <title><![CDATA[【Albums (lossy)】PACK - Bryan Adams - 18 Til I Die (3 versions) (1996/2012)]]></title>
                <link><![CDATA[https://sharemania.us/threads/bryan-adams-18-til-i-die-3-versions-1996-2012.226653/]]></link>
                <description><![CDATA[<article>
<blockquote class="messageText SelectQuoteContainer ugc baseHtml">
Thanks.
<div class="messageTextEndMarker">&nbsp;</div>
</blockquote>
</article>]]></description>
                <author><![CDATA[Giulya]]></author>
                </item>

                </channel></rss>